<svg width="12" height="12" viewBox="0 0 12 12" fill="none" xmlns="http://www.w3.org/2000/svg">
<path d="M8.79852 8.79858H7.99866V7.99872H8.79852V8.79858ZM6.39893 8.79858H7.19879V7.99872H6.39893V8.79858ZM10.3983 8.79858H9.59839V7.99872H10.3983V8.79858Z" fill="white"/>
<path fill-rule="evenodd" clip-rule="evenodd" d="M2.3996 4.7992V2.79953C2.3996 2.43189 2.47201 2.06785 2.6127 1.7282C2.75339 1.38854 2.9596 1.07992 3.21956 0.819964C3.47952 0.560003 3.78814 0.353791 4.1278 0.213102C4.46745 0.072412 4.83149 0 5.19913 0C5.56677 0 5.93081 0.072412 6.27047 0.213102C6.61012 0.353791 6.91874 0.560003 7.1787 0.819964C7.43866 1.07992 7.64487 1.38854 7.78556 1.7282C7.92625 2.06785 7.99866 2.43189 7.99866 2.79953V4.7992H9.19846C9.51667 4.7992 9.82184 4.92561 10.0469 5.15061C10.2719 5.37562 10.3983 5.68079 10.3983 5.999V6.43892C10.8503 6.53071 11.2567 6.77596 11.5486 7.1331C11.8405 7.49025 12 7.93733 12 8.3986C12 8.85986 11.8405 9.30694 11.5486 9.66409C11.2567 10.0212 10.8503 10.2665 10.3983 10.3583V10.7982C10.3983 11.1164 10.2719 11.4216 10.0469 11.6466C9.82184 11.8716 9.51667 11.998 9.19846 11.998H1.1998C0.881593 11.998 0.576419 11.8716 0.351413 11.6466C0.126407 11.4216 0 11.1164 0 10.7982L0 5.999C0 5.68079 0.126407 5.37562 0.351413 5.15061C0.576419 4.92561 0.881593 4.7992 1.1998 4.7992H2.3996ZM3.19947 2.79953C3.19947 2.26919 3.41014 1.76057 3.78515 1.38556C4.16016 1.01054 4.66879 0.799866 5.19913 0.799866C5.72948 0.799866 6.2381 1.01054 6.61311 1.38556C6.98812 1.76057 7.1988 2.26919 7.1988 2.79953V4.7992H3.19947V2.79953ZM6.79886 7.1988C6.48066 7.1988 6.17548 7.3252 5.95048 7.55021C5.72547 7.77522 5.59906 8.08039 5.59906 8.3986C5.59906 8.7168 5.72547 9.02198 5.95048 9.24698C6.17548 9.47199 6.48066 9.5984 6.79886 9.5984H9.99833C10.3165 9.5984 10.6217 9.47199 10.8467 9.24698C11.0717 9.02198 11.1981 8.7168 11.1981 8.3986C11.1981 8.08039 11.0717 7.77522 10.8467 7.55021C10.6217 7.3252 10.3165 7.1988 9.99833 7.1988H6.79886Z" fill="white"/>
</svg>
