<?xml version="1.0" encoding="UTF-8"?>
<svg id="Layer_1" data-name="Layer 1" xmlns="http://www.w3.org/2000/svg" viewBox="0 0 226 45.01">
  <defs>
    <style>
      .cls-1 {
        fill: #292a66;
      }

      .cls-1, .cls-2, .cls-3, .cls-4, .cls-5, .cls-6, .cls-7 {
        stroke-width: 0px;
      }

      .cls-2 {
        fill: #f04f40;
      }

      .cls-3 {
        fill: #97c941;
      }

      .cls-4 {
        fill: #812572;
      }

      .cls-5 {
        fill: #221f1f;
      }

      .cls-6 {
        fill: #f7ac1d;
      }

      .cls-7 {
        fill: #00a66d;
      }
    </style>
  </defs>
  <path class="cls-6" d="M.94,24.22c-.57-.33-.94-.94-.94-1.59v-3.13c0-1.41,1.53-2.29,2.76-1.59l8.18,4.56c1.21.7,1.25,2.41.06,3.15l-.53.35-2.15,1.25c-.57.33-1.25.33-1.82.02l-5.56-3Z"/>
  <path class="cls-1" d="M33.3,12.35c1.23-.72,1.23-2.47,0-3.19l-.45-.25-3.19-1.84-3.19-1.84-2.98-1.84-3.19-1.84-2.27-1.31c-.57-.33-1.27-.33-1.84,0l-2.27,1.29-3.19,1.84-3.19,1.84-3.19,1.84-2.96,1.7-.43.25c-1.23.72-1.23,2.47,0,3.19l.43.25,2.27,1.31c.57.33,1.27.33,1.84,0l2.04-1.17,3.19-1.84,3.19-1.84,2.27-1.31c.57-.33,1.27-.33,1.84,0l2.27,1.31,3.19,1.84,2.98,1.84,2.27,1.33c.57.33,1.27.33,1.84,0l2.72-1.55Z"/>
  <path class="cls-2" d="M25.47,33.03c.57-.33,1.27-.33,1.84,0l2.27,1.31.43.25c1.23.72,1.23,2.47,0,3.19l-12.2,6.99c-.57.33-1.27.33-1.84,0l-2.27-1.31-3.19-1.84-3.19-1.84-3.19-1.84-3.19-1.84c-1.31-.76-1.21-2.7.2-3.29l3.11-1.33c.53-.22,1.14-.18,1.64.1l1.43.82,3.19,1.84,3.19,1.84,2.27,1.31c.57.33,1.27.33,1.84,0l7.67-4.35Z"/>
  <path class="cls-4" d="M18.05,21.5l-3.45.2c-1.08.06-2-.82-1.94-1.92l.29-6.7c.04-.94.78-1.7,1.74-1.76l3.45-.2c1.08-.06,2,.82,1.94,1.92l-.29,6.7c-.06.94-.8,1.7-1.74,1.76"/>
  <path class="cls-7" d="M23.02,29.11l10.38-6.99c1.02-.67,1.1-2.15.16-2.92l-1.53-1.31c-.59-.51-1.47-.59-2.15-.18l-8.34,4.89"/>
  <path class="cls-3" d="M33.3,25.8l-7.75-4.48c-.57-.33-1.27-.33-1.84,0l-12.1,6.89c-1.23.72-1.23,2.47,0,3.19l2.72,1.57c.57.33,1.27.33,1.84,0l7.56-4.27c.57-.33,1.27-.33,1.84,0l5.91,3.41c1.23.72,2.76-.18,2.76-1.59v-3.13c-.02-.65-.37-1.27-.94-1.59"/>
  <polygon class="cls-5" points="57.75 8.18 51.43 8.18 51.43 25.35 47.18 25.35 47.18 8.18 40.94 8.18 40.94 4.72 57.75 4.72 57.75 8.18"/>
  <polygon class="cls-5" points="72.57 16.41 64.41 16.41 64.41 21.93 73.98 21.93 73.98 25.35 60.16 25.35 60.16 4.72 73.96 4.72 73.96 8.18 64.41 8.18 64.41 13.08 72.57 13.08 72.57 16.41"/>
  <path class="cls-5" d="M92.66,18.48c-.16,2.23-.98,3.97-2.45,5.23-1.47,1.27-3.43,1.92-5.85,1.92-2.64,0-4.72-.9-6.23-2.68-1.51-1.78-2.27-4.23-2.27-7.34v-1.25c0-1.98.35-3.72,1.04-5.23.7-1.51,1.7-2.68,3-3.48,1.29-.8,2.8-1.21,4.52-1.21,2.37,0,4.29.63,5.74,1.92,1.45,1.27,2.29,3.07,2.51,5.38h-4.25c-.1-1.33-.47-2.29-1.1-2.9-.63-.59-1.61-.9-2.9-.9-1.41,0-2.47.51-3.19,1.51-.7,1.02-1.06,2.6-1.08,4.72v1.55c0,2.23.35,3.86,1.02,4.89s1.74,1.55,3.19,1.55c1.31,0,2.29-.31,2.94-.9.65-.59,1.02-1.53,1.1-2.78h4.25v-.02Z"/>
  <polygon class="cls-5" points="112.24 25.35 107.99 25.35 107.99 16.52 99.71 16.52 99.71 25.35 95.46 25.35 95.46 4.72 99.71 4.72 99.71 13.08 107.99 13.08 107.99 4.72 112.24 4.72 112.24 25.35"/>
  <polygon class="cls-5" points="132.71 25.35 128.47 25.35 120.2 11.77 120.2 25.35 115.94 25.35 115.94 4.72 120.2 4.72 128.47 18.34 128.47 4.72 132.71 4.72 132.71 25.35"/>
  <path class="cls-5" d="M153.37,15.52c0,2.02-.37,3.8-1.08,5.34s-1.74,2.72-3.09,3.54c-1.33.84-2.86,1.25-4.6,1.25s-3.23-.41-4.58-1.23c-1.35-.82-2.37-2-3.11-3.52-.74-1.53-1.1-3.27-1.12-5.25v-1.02c0-2.02.37-3.82,1.1-5.36.74-1.55,1.76-2.72,3.11-3.56,1.33-.82,2.86-1.25,4.58-1.25s3.25.41,4.58,1.25c1.33.82,2.37,2,3.11,3.56.74,1.55,1.1,3.33,1.1,5.36v.9h0ZM149.06,14.57c0-2.17-.39-3.8-1.17-4.93s-1.88-1.68-3.31-1.68-2.53.55-3.29,1.66c-.78,1.1-1.17,2.74-1.17,4.89v1c0,2.11.39,3.74,1.17,4.91s1.88,1.74,3.33,1.74,2.51-.55,3.29-1.68c.76-1.12,1.14-2.74,1.17-4.89v-1.02h-.02Z"/>
  <path class="cls-5" d="M167.15,19.95c0-.8-.29-1.41-.86-1.84s-1.59-.88-3.07-1.37c-1.47-.47-2.64-.94-3.5-1.41-2.35-1.27-3.52-2.96-3.52-5.11,0-1.1.31-2.11.94-2.98.63-.88,1.53-1.55,2.7-2.04s2.49-.74,3.97-.74,2.78.27,3.95.8c1.14.53,2.04,1.29,2.68,2.27.63.98.96,2.09.96,3.31h-4.25c0-.94-.31-1.68-.9-2.21-.59-.53-1.43-.78-2.51-.78s-1.84.22-2.41.65c-.57.45-.86,1.02-.86,1.74,0,.67.35,1.23,1.02,1.68s1.68.88,2.98,1.27c2.41.74,4.17,1.64,5.27,2.7,1.1,1.08,1.66,2.41,1.66,4.03,0,1.78-.67,3.19-2.02,4.19-1.35,1.02-3.17,1.51-5.46,1.51-1.59,0-3.03-.29-4.33-.88-1.31-.57-2.29-1.37-2.98-2.39-.7-1-1.02-2.19-1.02-3.52h4.27c0,2.27,1.37,3.41,4.09,3.41,1,0,1.8-.2,2.37-.61.55-.37.84-.94.84-1.68"/>
  <path class="cls-5" d="M191.21,15.52c0,2.02-.37,3.8-1.08,5.34s-1.74,2.72-3.09,3.54c-1.33.84-2.86,1.25-4.6,1.25s-3.23-.41-4.58-1.23c-1.35-.82-2.37-2-3.11-3.52-.74-1.53-1.1-3.27-1.12-5.25v-1.02c0-2.02.37-3.82,1.1-5.36.74-1.55,1.76-2.72,3.11-3.56,1.33-.82,2.86-1.25,4.58-1.25s3.25.41,4.58,1.25,2.37,2,3.11,3.56c.74,1.55,1.1,3.33,1.1,5.36v.9h0ZM186.92,14.57c0-2.17-.39-3.8-1.17-4.93s-1.88-1.68-3.31-1.68-2.53.55-3.29,1.66c-.78,1.1-1.17,2.74-1.17,4.89v1c0,2.11.39,3.74,1.17,4.91s1.88,1.74,3.33,1.74,2.51-.55,3.29-1.68c.76-1.12,1.14-2.74,1.17-4.89v-1.02h-.02Z"/>
  <polygon class="cls-5" points="206.7 16.93 198.55 16.93 198.55 25.35 194.32 25.35 194.32 4.72 207.73 4.72 207.73 8.18 198.55 8.18 198.55 13.49 206.7 13.49 206.7 16.93"/>
  <polygon class="cls-5" points="226 8.18 219.68 8.18 219.68 25.35 215.43 25.35 215.43 8.18 209.2 8.18 209.2 4.72 226 4.72 226 8.18"/>
  <g>
    <path class="cls-5" d="M50.08,42.52h-1.37v-7.89h1.37v7.89Z"/>
    <path class="cls-5" d="M63.7,42.52h-1.39l-3.56-5.6v5.6h-1.39v-7.89h1.39l3.56,5.62v-5.62h1.37v7.89h.02Z"/>
    <path class="cls-5" d="M75.51,39.19h-3.21v3.33h-1.39v-7.89h5.05v1.1h-3.68v2.35h3.21v1.1h.02Z"/>
    <path class="cls-5" d="M89.04,38.8c0,.78-.14,1.45-.41,2.02-.27.59-.65,1.02-1.17,1.35-.51.31-1.08.47-1.74.47s-1.23-.16-1.72-.47c-.51-.31-.9-.76-1.17-1.33-.27-.57-.41-1.25-.41-2v-.45c0-.78.14-1.45.41-2.04s.65-1.04,1.17-1.35,1.08-.47,1.72-.47,1.23.16,1.72.47c.51.31.88.76,1.17,1.33s.41,1.25.41,2.02v.45h.02ZM87.65,38.39c0-.88-.16-1.53-.49-2s-.8-.7-1.41-.7-1.06.22-1.41.7c-.33.47-.51,1.12-.51,1.96v.45c0,.86.16,1.53.51,2s.82.72,1.41.72,1.08-.22,1.41-.7.49-1.14.49-2.02v-.41Z"/>
    <path class="cls-5" d="M98.94,39.49h-1.53v3.03h-1.39v-7.89h2.8c.92,0,1.64.2,2.13.61.49.41.76,1,.76,1.78,0,.53-.12.96-.39,1.33-.27.35-.61.63-1.08.82l1.78,3.29v.06h-1.47l-1.59-3.03ZM97.4,38.39h1.43c.47,0,.84-.12,1.08-.35.27-.22.39-.55.39-.96,0-.43-.12-.76-.37-.98-.25-.22-.61-.35-1.08-.35h-1.45v2.64Z"/>
    <path class="cls-5" d="M110.38,34.65l2.29,6.05,2.29-6.05h1.78v7.89h-1.37v-2.62l.14-3.48-2.35,6.07h-.98l-2.35-6.07.14,3.48v2.6h-1.37v-7.89h1.78v.02Z"/>
    <path class="cls-5" d="M128.56,40.7h-3.09l-.65,1.84h-1.43l3-7.89h1.25l3,7.89h-1.43l-.65-1.84ZM125.86,39.59h2.31l-1.14-3.27-1.17,3.27Z"/>
    <path class="cls-5" d="M142.25,35.75h-2.47v6.79h-1.37v-6.79h-2.45v-1.1h6.32v1.1h-.02Z"/>
    <path class="cls-5" d="M150.35,42.52h-1.37v-7.89h1.37v7.89Z"/>
    <path class="cls-5" d="M163.72,39.96c-.08.84-.39,1.49-.94,1.96s-1.27.72-2.19.72c-.63,0-1.19-.14-1.68-.45s-.86-.72-1.12-1.27-.41-1.19-.41-1.92v-.74c0-.74.14-1.39.41-1.96.27-.57.65-1,1.14-1.31.49-.31,1.06-.47,1.72-.47.88,0,1.59.25,2.13.72.53.47.84,1.14.94,2h-1.37c-.06-.57-.22-.98-.49-1.23-.27-.25-.65-.37-1.19-.37-.59,0-1.06.22-1.39.65s-.49,1.08-.49,1.92v.7c0,.86.16,1.49.47,1.94s.76.67,1.35.67c.55,0,.96-.12,1.23-.37.27-.25.45-.65.51-1.21h1.37Z"/>
    <path class="cls-5" d="M174.71,40.49c0-.35-.12-.61-.37-.8s-.7-.37-1.33-.57c-.63-.18-1.14-.41-1.53-.63-.72-.45-1.08-1.04-1.08-1.76,0-.63.27-1.17.78-1.57.53-.41,1.21-.61,2.04-.61.55,0,1.04.1,1.47.31.43.2.78.49,1.02.86.25.37.37.8.37,1.25h-1.37c0-.41-.12-.74-.39-.96-.27-.22-.63-.35-1.12-.35-.45,0-.8.1-1.04.29-.25.18-.37.45-.37.8,0,.29.14.53.41.72s.72.39,1.33.57,1.12.39,1.49.61.65.49.82.8c.18.31.27.65.27,1.06,0,.65-.25,1.19-.76,1.57-.51.39-1.21.57-2.06.57-.57,0-1.1-.1-1.59-.31-.49-.2-.86-.51-1.12-.88s-.41-.8-.41-1.31h1.39c0,.45.14.8.45,1.04s.74.37,1.29.37c.49,0,.84-.1,1.08-.29.22-.2.35-.45.35-.78Z"/>
    <path class="cls-5" d="M192.68,41.43h3.62v1.08h-4.99v-7.89h1.39v6.81h-.02Z"/>
    <path class="cls-5" d="M207.58,35.75h-2.47v6.79h-1.37v-6.79h-2.45v-1.1h6.32v1.1h-.02Z"/>
    <path class="cls-5" d="M214.23,42.52v-7.89h2.35c.7,0,1.33.16,1.88.47.55.31.96.76,1.27,1.33s.45,1.23.45,1.96v.39c0,.76-.14,1.41-.45,1.96-.31.57-.74,1-1.29,1.31-.55.31-1.19.45-1.9.45h-2.31v.02ZM215.62,35.75v5.68h.9c.72,0,1.29-.22,1.68-.67.39-.45.59-1.1.59-1.94v-.43c0-.86-.18-1.51-.57-1.96-.37-.45-.92-.67-1.64-.67h-.96Z"/>
  </g>
</svg>